<svg xmlns="http://www.w3.org/2000/svg" viewBox="0 0 959.76 960.1"><path d="M478.54,1.58c14.26-.08,28.45-3.31,42.59-.3,62.61,5.55,124.34,22.76,180,52.08,72,36.9,134,93,179,160.22,45.87,68.38,73,148.91,79.15,231-1,21.72-1.64,43.57.46,65.24-4.48,62.38-20.1,124.25-47.94,180.43a479.59,479.59,0,0,1-385.19,266.9c-13.76,1-27.49,3.53-41.33,2.47-9.16-.61-18.55,2.32-27.35-1.43q50.6-142.32,101.45-284.59c37-.69,74.09.24,111.12-.44,23.64-.82,47-15.21,54.76-38.18,31.32-88.19,63.43-176.12,93.77-264.69,5-13.37,7.74-28.28,3.77-42.28-5.36-17.75-21.6-30.31-39.06-35-15.15-4.71-31.15-3-46.74-3.26-47.54-.13-95.08.25-142.59-.22-.76,1.59-2.32,4.74-3.09,6.3Q475.89,620.05,360.28,944.28A480.58,480.58,0,0,1,148,825.44c-71-68-120.34-158.37-138.59-255-5.71-29-7.79-58.56-9.38-88,1.29-61.35,11.35-123,34.46-180C90.83,158.28,221.28,44.8,372.91,12.36c-77.62,215.23-153.44,431.11-231,646.37,4.95,1.51,10.15.93,15.24,1,28.28-.13,56.59.06,84.87-.05,3.86,0,3.45-5.39,5.06-7.85,34.08-96.22,68.57-192.31,102.76-288.48a160,160,0,0,1,6.7-17.64c17.73.3,35.45-.08,53.17.19-37.17,104.24-74,208.64-111.73,312.68,3.94,1.59,8.23,1.1,12.36,1.18,29.71-.27,59.41.19,89.12-.22C433,564.8,467,470.25,500.59,375.58c7.19-19.36,7.82-42.25-3.61-60.11-10-15.81-28.94-23.36-47-24.1-24.73-.74-49.48.05-74.24-.38C409.76,194.44,444.79,98.24,478.54,1.58Z" fill="#015294"/><path d="M675.62,346.92c3-3.33,8.2-1.31,12.14-1.88,13.73.24,27.46-.11,41.19.19-32,91.27-65.45,182-96.91,273.49-17.78,1.25-35.69.49-53.5.38,32.47-90.67,64.61-181.48,97.08-272.18Z" fill="#015294"/></svg>