<?xml version="1.0" encoding="UTF-8"?>
<!DOCTYPE svg PUBLIC "-//W3C//DTD SVG 1.1//EN" "http://www.w3.org/Graphics/SVG/1.1/DTD/svg11.dtd">
<svg xmlns="http://www.w3.org/2000/svg" version="1.1" width="250px" height="115px" style="shape-rendering:geometricPrecision; text-rendering:geometricPrecision; image-rendering:optimizeQuality; fill-rule:evenodd; clip-rule:evenodd" xmlns:xlink="http://www.w3.org/1999/xlink">
<g><path style="opacity:0.72" fill="#ca2b2b" d="M 98.5,-0.5 C 99.1667,-0.5 99.8333,-0.5 100.5,-0.5C 101.582,6.28178 99.2487,11.2818 93.5,14.5C 92.2375,8.55897 93.9042,3.55897 98.5,-0.5 Z"/></g>
<g><path style="opacity:0.808" fill="#e09838" d="M -0.5,1.5 C 1.14363,1.81018 2.14363,2.81018 2.5,4.5C 2.5,8.16667 2.5,11.8333 2.5,15.5C 1.5,14.8333 0.5,14.1667 -0.5,13.5C -0.5,9.5 -0.5,5.5 -0.5,1.5 Z"/></g>
<g><path style="opacity:0.888" fill="#e09236" d="M 2.5,4.5 C 4.16667,5.5 5.5,6.83333 6.5,8.5C 6.5,11.8333 6.5,15.1667 6.5,18.5C 5.16667,17.5 3.83333,16.5 2.5,15.5C 2.5,11.8333 2.5,8.16667 2.5,4.5 Z"/></g>
<g><path style="opacity:0.799" fill="#de8c35" d="M 6.5,8.5 C 7.83333,9.16667 8.83333,10.1667 9.5,11.5C 9.5,14.8333 9.5,18.1667 9.5,21.5C 8.16667,20.8333 7.16667,19.8333 6.5,18.5C 6.5,15.1667 6.5,11.8333 6.5,8.5 Z"/></g>
<g><path style="opacity:0.805" fill="#dd8734" d="M 9.5,11.5 C 11.2624,12.2623 12.2624,13.5956 12.5,15.5C 12.5,18.1667 12.5,20.8333 12.5,23.5C 11.5,22.8333 10.5,22.1667 9.5,21.5C 9.5,18.1667 9.5,14.8333 9.5,11.5 Z"/></g>
<g><path style="opacity:0.812" fill="#db8133" d="M 12.5,15.5 C 13.8333,16.1667 14.8333,17.1667 15.5,18.5C 15.5,21.1667 15.5,23.8333 15.5,26.5C 14.1667,25.8333 13.1667,24.8333 12.5,23.5C 12.5,20.8333 12.5,18.1667 12.5,15.5 Z"/></g>
<g><path style="opacity:0.601" fill="#ca2d2b" d="M 85.5,15.5 C 87.8484,20.2463 86.515,24.2463 81.5,27.5C 80.359,25.5787 80.1923,23.5787 81,21.5C 82.332,19.34 83.832,17.34 85.5,15.5 Z"/></g>
<g><path style="opacity:0.852" fill="#e09838" d="M -0.5,18.5 C 1.02694,18.427 2.02694,19.0937 2.5,20.5C 2.5,23.8333 2.5,27.1667 2.5,30.5C 1.60895,29.8902 0.608953,29.5569 -0.5,29.5C -0.5,25.8333 -0.5,22.1667 -0.5,18.5 Z"/></g>
<g><path style="opacity:0.836" fill="#d97c32" d="M 15.5,18.5 C 16.8333,19.1667 17.8333,20.1667 18.5,21.5C 18.5,23.8333 18.5,26.1667 18.5,28.5C 17.5,27.8333 16.5,27.1667 15.5,26.5C 15.5,23.8333 15.5,21.1667 15.5,18.5 Z"/></g>
<g><path style="opacity:0.85" fill="#e09236" d="M 2.5,20.5 C 4.23033,21.0256 5.56366,22.0256 6.5,23.5C 6.5,26.5 6.5,29.5 6.5,32.5C 4.93819,32.2671 3.60486,31.6005 2.5,30.5C 2.5,27.1667 2.5,23.8333 2.5,20.5 Z"/></g>
<g><path style="opacity:0.618" fill="#ca352b" d="M 78.5,34.5 C 78.5,36.1667 78.5,37.8333 78.5,39.5C 77.71,38.3915 77.21,37.0581 77,35.5C 74.0813,37.1579 72.2479,39.6579 71.5,43C 72.448,43.4828 73.448,43.6495 74.5,43.5C 74.5792,44.9305 74.2458,46.2638 73.5,47.5C 73.9377,48.5063 74.6043,48.5063 75.5,47.5C 76.4519,49.0453 76.7852,50.712 76.5,52.5C 75.0695,52.4208 73.7362,52.7542 72.5,53.5C 70.9172,51.01 69.9172,48.3433 69.5,45.5C 69.5,43.5 69.5,41.5 69.5,39.5C 70.4558,38.3406 71.4558,37.1739 72.5,36C 72.3333,35.5 72.1667,35 72,34.5C 71.2917,35.3805 70.4584,36.0472 69.5,36.5C 69.5,34.8333 69.5,33.1667 69.5,31.5C 70.9616,29.0279 72.1283,26.3612 73,23.5C 74.0195,22.3128 75.1861,21.3128 76.5,20.5C 77.5426,24.6587 76.5426,28.3254 73.5,31.5C 73.6667,31.8333 73.8333,32.1667 74,32.5C 75.0195,31.3128 76.1861,30.3128 77.5,29.5C 77.9427,31.287 78.2761,32.9537 78.5,34.5 Z"/></g>
<g><path style="opacity:0.744" fill="#d87831" d="M 18.5,21.5 C 19.5,21.8333 20.1667,22.5 20.5,23.5C 20.5,25.8333 20.5,28.1667 20.5,30.5C 19.5,30.1667 18.8333,29.5 18.5,28.5C 18.5,26.1667 18.5,23.8333 18.5,21.5 Z"/></g>
<g><path style="opacity:0.826" fill="#de8c35" d="M 6.5,23.5 C 7.70951,23.9321 8.70951,24.5987 9.5,25.5C 9.5,28.5 9.5,31.5 9.5,34.5C 8.29049,34.0679 7.29049,33.4013 6.5,32.5C 6.5,29.5 6.5,26.5 6.5,23.5 Z"/></g>
<g><path style="opacity:0.719" fill="#d77330" d="M 20.5,23.5 C 22.543,24.5794 23.8763,26.246 24.5,28.5C 24.5,30.1667 24.5,31.8333 24.5,33.5C 22.7697,32.9744 21.4363,31.9744 20.5,30.5C 20.5,28.1667 20.5,25.8333 20.5,23.5 Z"/></g>
<g><path style="opacity:0.853" fill="#dd8734" d="M 9.5,25.5 C 10.5,26.1667 11.5,26.8333 12.5,27.5C 12.5,30.1667 12.5,32.8333 12.5,35.5C 11.391,35.4431 10.391,35.1098 9.5,34.5C 9.5,31.5 9.5,28.5 9.5,25.5 Z"/></g>
<g><path style="opacity:0.785" fill="#db8133" d="M 12.5,27.5 C 13.8333,28.1667 14.8333,29.1667 15.5,30.5C 15.5,32.8333 15.5,35.1667 15.5,37.5C 13.9731,37.573 12.9731,36.9063 12.5,35.5C 12.5,32.8333 12.5,30.1667 12.5,27.5 Z"/></g>
<g><path style="opacity:0.705" fill="#d66e30" d="M 24.5,28.5 C 26.1667,29.5 27.5,30.8333 28.5,32.5C 28.5,34.1667 28.5,35.8333 28.5,37.5C 26.8333,36.5 25.5,35.1667 24.5,33.5C 24.5,31.8333 24.5,30.1667 24.5,28.5 Z"/></g>
<g><path style="opacity:0.789" fill="#d97c32" d="M 15.5,30.5 C 17.0269,30.427 18.0269,31.0937 18.5,32.5C 18.5,34.8333 18.5,37.1667 18.5,39.5C 17.2905,39.0679 16.2905,38.4013 15.5,37.5C 15.5,35.1667 15.5,32.8333 15.5,30.5 Z"/></g>
<g><path style="opacity:0.643" fill="#ca2e2b" d="M 78.5,39.5 C 78.5,37.8333 78.5,36.1667 78.5,34.5C 82.6481,28.8207 83.9814,29.4874 82.5,36.5C 81.1482,37.5244 79.8149,38.5244 78.5,39.5 Z"/></g>
<g><path style="opacity:0.626" fill="#cc3a2b" d="M 69.5,31.5 C 69.5,33.1667 69.5,34.8333 69.5,36.5C 68.5,37.8333 67.5,39.1667 66.5,40.5C 65.391,40.5569 64.391,40.8902 63.5,41.5C 63.5,40.5 63.5,39.5 63.5,38.5C 64.7997,35.5677 66.7997,33.2344 69.5,31.5 Z"/></g>
<g><path style="opacity:0.817" fill="#d87831" d="M 18.5,32.5 C 19.1667,32.8333 19.8333,33.1667 20.5,33.5C 20.5,35.8333 20.5,38.1667 20.5,40.5C 19.8333,40.1667 19.1667,39.8333 18.5,39.5C 18.5,37.1667 18.5,34.8333 18.5,32.5 Z"/></g>
<g><path style="opacity:0.673" fill="#d5692f" d="M 28.5,32.5 C 29.8333,33.1667 30.8333,34.1667 31.5,35.5C 31.5,36.8333 31.5,38.1667 31.5,39.5C 30.5,38.8333 29.5,38.1667 28.5,37.5C 28.5,35.8333 28.5,34.1667 28.5,32.5 Z"/></g>
<g><path style="opacity:0.759" fill="#d77330" d="M 20.5,33.5 C 21.8333,34.5 23.1667,35.5 24.5,36.5C 24.5,38.5 24.5,40.5 24.5,42.5C 22.9382,42.2671 21.6049,41.6005 20.5,40.5C 20.5,38.1667 20.5,35.8333 20.5,33.5 Z"/></g>
<g><path style="opacity:0.669" fill="#ca2d2b" d="M 89.5,33.5 C 90.5862,33.62 91.2528,34.2867 91.5,35.5C 91.1012,37.1966 90.6012,38.8632 90,40.5C 87.0719,41.7598 85.2386,43.9265 84.5,47C 80.3848,49.5385 78.8848,48.3718 80,43.5C 83.2226,42.2775 84.8893,39.9441 85,36.5C 86.6516,35.6006 88.1516,34.6006 89.5,33.5 Z"/></g>
<g><path style="opacity:0.866" fill="#e09838" d="M -0.5,34.5 C 0.791047,34.2627 1.79105,34.596 2.5,35.5C 2.5,38.5 2.5,41.5 2.5,44.5C 1.39105,44.4431 0.391047,44.1098 -0.5,43.5C -0.5,40.5 -0.5,37.5 -0.5,34.5 Z"/></g>
<g><path style="opacity:0.872" fill="#e09236" d="M 2.5,35.5 C 3.83333,35.8333 5.16667,36.1667 6.5,36.5C 6.5,39.5 6.5,42.5 6.5,45.5C 5.04125,45.5674 3.70792,45.2341 2.5,44.5C 2.5,41.5 2.5,38.5 2.5,35.5 Z"/></g>
<g><path style="opacity:0.549" fill="#d4652e" d="M 31.5,35.5 C 32.5,35.8333 33.1667,36.5 33.5,37.5C 33.5,38.8333 33.5,40.1667 33.5,41.5C 32.5,41.1667 31.8333,40.5 31.5,39.5C 31.5,38.1667 31.5,36.8333 31.5,35.5 Z"/></g>
<g><path style="opacity:0.828" fill="#de8c35" d="M 6.5,36.5 C 7.70951,36.9321 8.70951,37.5987 9.5,38.5C 9.5,41.1667 9.5,43.8333 9.5,46.5C 8.39105,46.4431 7.39105,46.1098 6.5,45.5C 6.5,42.5 6.5,39.5 6.5,36.5 Z"/></g>
<g><path style="opacity:0.723" fill="#d66e30" d="M 24.5,36.5 C 26.1667,37.5 27.5,38.8333 28.5,40.5C 28.5,41.8333 28.5,43.1667 28.5,44.5C 26.847,44.3404 25.5137,43.6737 24.5,42.5C 24.5,40.5 24.5,38.5 24.5,36.5 Z"/></g>
<g><path style="opacity:0.524" fill="#d3602d" d="M 33.5,37.5 C 35.137,39.4752 36.8036,41.4752 38.5,43.5C 38.5,44.1667 38.5,44.8333 38.5,45.5C 37.3951,44.3995 36.0618,43.7329 34.5,43.5C 34.1667,42.8333 33.8333,42.1667 33.5,41.5C 33.5,40.1667 33.5,38.8333 33.5,37.5 Z"/></g>
<g><path style="opacity:0.832" fill="#dd8734" d="M 9.5,38.5 C 10.609,38.5569 11.609,38.8902 12.5,39.5C 12.5,42.1667 12.5,44.8333 12.5,47.5C 11.391,47.4431 10.391,47.1098 9.5,46.5C 9.5,43.8333 9.5,41.1667 9.5,38.5 Z"/></g>
<g><path style="opacity:0.477" fill="#cd412b" d="M 63.5,38.5 C 63.5,39.5 63.5,40.5 63.5,41.5C 63.1667,42.1667 62.8333,42.8333 62.5,43.5C 61.8333,43.5 61.5,43.8333 61.5,44.5C 60.8333,44.5 60.5,44.8333 60.5,45.5C 59.5084,45.3284 58.8417,45.6618 58.5,46.5C 58.1667,46.5 57.8333,46.5 57.5,46.5C 57.5,46.1667 57.5,45.8333 57.5,45.5C 58.7573,42.5726 60.7573,40.2393 63.5,38.5 Z"/></g>
<g><path style="opacity:0.803" fill="#db8133" d="M 12.5,39.5 C 13.7095,39.9321 14.7095,40.5987 15.5,41.5C 15.5,43.8333 15.5,46.1667 15.5,48.5C 14.391,48.4431 13.391,48.1098 12.5,47.5C 12.5,44.8333 12.5,42.1667 12.5,39.5 Z"/></g>
<g><path style="opacity:0.717" fill="#cc3a2b" d="M 69.5,39.5 C 69.5,41.5 69.5,43.5 69.5,45.5C 67.5,46.1667 65.5,46.8333 63.5,47.5C 63.5,46.1667 63.5,44.8333 63.5,43.5C 64.8333,42.8333 65.8333,41.8333 66.5,40.5C 67.609,40.4431 68.609,40.1098 69.5,39.5 Z"/></g>
<g><path style="opacity:0.731" fill="#d5692f" d="M 28.5,40.5 C 30.0269,40.427 31.0269,41.0937 31.5,42.5C 31.5,43.8333 31.5,45.1667 31.5,46.5C 30.2905,46.0679 29.2905,45.4013 28.5,44.5C 28.5,43.1667 28.5,41.8333 28.5,40.5 Z"/></g>
<g><path style="opacity:0.855" fill="#d97c32" d="M 15.5,41.5 C 16.609,41.5569 17.609,41.8902 18.5,42.5C 18.5,44.8333 18.5,47.1667 18.5,49.5C 17.609,48.8902 16.609,48.5569 15.5,48.5C 15.5,46.1667 15.5,43.8333 15.5,41.5 Z"/></g>
<g><path style="opacity:0.843" fill="#d87831" d="M 18.5,42.5 C 19.1667,42.8333 19.8333,43.1667 20.5,43.5C 20.5,45.5 20.5,47.5 20.5,49.5C 19.8333,49.5 19.1667,49.5 18.5,49.5C 18.5,47.1667 18.5,44.8333 18.5,42.5 Z"/></g>
<g><path style="opacity:0.7" fill="#d4652e" d="M 31.5,42.5 C 32.1667,42.8333 32.8333,43.1667 33.5,43.5C 33.5,44.8333 33.5,46.1667 33.5,47.5C 32.5084,47.6716 31.8417,47.3382 31.5,46.5C 31.5,45.1667 31.5,43.8333 31.5,42.5 Z"/></g>
<g><path style="opacity:0.793" fill="#d77330" d="M 20.5,43.5 C 21.8333,44.1667 23.1667,44.8333 24.5,45.5C 24.5,47.5 24.5,49.5 24.5,51.5C 23.0048,51.0113 21.6715,50.3446 20.5,49.5C 20.5,47.5 20.5,45.5 20.5,43.5 Z"/></g>
<g><path style="opacity:0.617" fill="#d3602d" d="M 33.5,43.5 C 33.8333,43.5 34.1667,43.5 34.5,43.5C 35.2623,45.2624 36.5956,46.2624 38.5,46.5C 38.5,46.8333 38.5,47.1667 38.5,47.5C 38.5,48.5 38.5,49.5 38.5,50.5C 36.6316,49.7368 34.9649,48.7368 33.5,47.5C 33.5,46.1667 33.5,44.8333 33.5,43.5 Z"/></g>
<g><path style="opacity:0.281" fill="#d15a2c" d="M 38.5,43.5 C 40.1288,44.6253 41.6288,45.9586 43,47.5C 43.6917,48.4368 43.525,49.1034 42.5,49.5C 42.1583,48.6618 41.4916,48.3284 40.5,48.5C 40.5,47.8333 40.1667,47.5 39.5,47.5C 39.5,46.8333 39.1667,46.5 38.5,46.5C 38.5,46.1667 38.5,45.8333 38.5,45.5C 38.5,44.8333 38.5,44.1667 38.5,43.5 Z"/></g>
<g><path style="opacity:0.596" fill="#cd412b" d="M 62.5,43.5 C 62.8333,43.5 63.1667,43.5 63.5,43.5C 63.5,44.8333 63.5,46.1667 63.5,47.5C 62.3065,48.2719 61.3065,49.2719 60.5,50.5C 59.5084,50.3284 58.8417,50.6618 58.5,51.5C 58.1667,51.5 57.8333,51.5 57.5,51.5C 57.5,50.5 57.5,49.5 57.5,48.5C 57.5,48.1667 57.5,47.8333 57.5,47.5C 58.1667,47.5 58.5,47.1667 58.5,46.5C 59.4916,46.6716 60.1583,46.3382 60.5,45.5C 61.1667,45.5 61.5,45.1667 61.5,44.5C 62.1667,44.5 62.5,44.1667 62.5,43.5 Z"/></g>
<g><path style="opacity:0.776" fill="#d66e30" d="M 24.5,45.5 C 25.9952,45.9887 27.3285,46.6554 28.5,47.5C 28.5,49.1667 28.5,50.8333 28.5,52.5C 27.2921,51.7659 25.9587,51.4326 24.5,51.5C 24.5,49.5 24.5,47.5 24.5,45.5 Z"/></g>
<g><path style="opacity:0.263" fill="#ce472b" d="M 57.5,45.5 C 57.5,45.8333 57.5,46.1667 57.5,46.5C 57.5,46.8333 57.5,47.1667 57.5,47.5C 56.8333,47.5 56.5,47.8333 56.5,48.5C 55.8333,48.5 55.5,48.8333 55.5,49.5C 54.5272,47.7084 55.1939,46.375 57.5,45.5 Z"/></g>
<g><path style="opacity:0.734" fill="#d5692f" d="M 28.5,47.5 C 29.609,47.5569 30.609,47.8902 31.5,48.5C 31.5,50.1667 31.5,51.8333 31.5,53.5C 30.609,52.8902 29.609,52.5569 28.5,52.5C 28.5,50.8333 28.5,49.1667 28.5,47.5 Z"/></g>
<g><path style="opacity:0.526" fill="#d25a2c" d="M 38.5,47.5 C 38.8333,47.5 39.1667,47.5 39.5,47.5C 40.1667,47.5 40.5,47.8333 40.5,48.5C 40.8417,49.3382 41.5084,49.6716 42.5,49.5C 42.5,49.8333 42.5,50.1667 42.5,50.5C 42.5,51.1667 42.5,51.8333 42.5,52.5C 41.8333,52.5 41.1667,52.5 40.5,52.5C 40.1667,51.5 39.5,50.8333 38.5,50.5C 38.5,49.5 38.5,48.5 38.5,47.5 Z"/></g>
<g><path style="opacity:0.898" fill="#e09838" d="M -0.5,48.5 C 0.5,48.5 1.5,48.5 2.5,48.5C 2.5,51.5 2.5,54.5 2.5,57.5C 1.5,57.5 0.5,57.5 -0.5,57.5C -0.5,54.5 -0.5,51.5 -0.5,48.5 Z"/></g>
<g><path style="opacity:0.89" fill="#e09236" d="M 2.5,48.5 C 3.83333,48.8333 5.16667,49.1667 6.5,49.5C 6.5,52.1667 6.5,54.8333 6.5,57.5C 5.16667,57.5 3.83333,57.5 2.5,57.5C 2.5,54.5 2.5,51.5 2.5,48.5 Z"/></g>
<g><path style="opacity:0.719" fill="#d4652e" d="M 31.5,48.5 C 32.1667,48.8333 32.8333,49.1667 33.5,49.5C 33.5,50.8333 33.5,52.1667 33.5,53.5C 32.8333,53.5 32.1667,53.5 31.5,53.5C 31.5,51.8333 31.5,50.1667 31.5,48.5 Z"/></g>
<g><path style="opacity:0.521" fill="#ce472b" d="M 56.5,48.5 C 56.8333,48.5 57.1667,48.5 57.5,48.5C 57.5,49.5 57.5,50.5 57.5,51.5C 56.1667,51.8333 56.1667,52.1667 57.5,52.5C 57.5,53.5 57.5,54.5 57.5,55.5C 55.9724,56.3092 54.3057,56.9759 52.5,57.5C 52.5,56.8333 52.5,56.1667 52.5,55.5C 52.5,55.1667 52.5,54.8333 52.5,54.5C 52.5,53.8333 52.5,53.1667 52.5,52.5C 53.3065,51.2719 54.3065,50.2719 55.5,49.5C 56.1667,49.5 56.5,49.1667 56.5,48.5 Z"/></g>
<g><path style="opacity:0.611" fill="#cc3b2b" d="M 63.5,53.5 C 63.5,52.1667 63.5,50.8333 63.5,49.5C 64.7079,48.7659 66.0413,48.4326 67.5,48.5C 67.8034,51.5876 66.4701,53.2542 63.5,53.5 Z"/></g>
<g><path style="opacity:0.92" fill="#de8c35" d="M 6.5,49.5 C 7.60895,49.5569 8.60895,49.8902 9.5,50.5C 9.5,52.8333 9.5,55.1667 9.5,57.5C 8.5,57.5 7.5,57.5 6.5,57.5C 6.5,54.8333 6.5,52.1667 6.5,49.5 Z"/></g>
<g><path style="opacity:0.659" fill="#d3602d" d="M 33.5,49.5 C 35.3684,50.2632 37.0351,51.2632 38.5,52.5C 38.5,53.5 38.5,54.5 38.5,55.5C 36.6943,54.9759 35.0276,54.3092 33.5,53.5C 33.5,52.1667 33.5,50.8333 33.5,49.5 Z"/></g>
<g><path style="opacity:0.682" fill="#cd412b" d="M 63.5,49.5 C 63.5,50.8333 63.5,52.1667 63.5,53.5C 61.7857,54.7384 59.7857,55.405 57.5,55.5C 57.5,54.5 57.5,53.5 57.5,52.5C 58.1667,52.5 58.5,52.1667 58.5,51.5C 59.4916,51.6716 60.1583,51.3382 60.5,50.5C 61.609,50.4431 62.609,50.1098 63.5,49.5 Z"/></g>
<g><path style="opacity:0.818" fill="#dd8734" d="M 9.5,50.5 C 10.5,50.5 11.5,50.5 12.5,50.5C 12.5,53.1667 12.5,55.8333 12.5,58.5C 11.209,58.7373 10.209,58.404 9.5,57.5C 9.5,55.1667 9.5,52.8333 9.5,50.5 Z"/></g>
<g><path style="opacity:0.823" fill="#db8133" d="M 12.5,50.5 C 13.391,51.1098 14.391,51.4431 15.5,51.5C 15.5,53.8333 15.5,56.1667 15.5,58.5C 14.5,58.5 13.5,58.5 12.5,58.5C 12.5,55.8333 12.5,53.1667 12.5,50.5 Z"/></g>
<g><path style="opacity:0.802" fill="#d97c32" d="M 15.5,51.5 C 16.791,51.2627 17.791,51.596 18.5,52.5C 18.5,54.5 18.5,56.5 18.5,58.5C 17.5,58.5 16.5,58.5 15.5,58.5C 15.5,56.1667 15.5,53.8333 15.5,51.5 Z"/></g>
<g><path style="opacity:0.852" fill="#d87831" d="M 18.5,52.5 C 19.1667,52.5 19.8333,52.5 20.5,52.5C 20.5,54.5 20.5,56.5 20.5,58.5C 19.8333,58.5 19.1667,58.5 18.5,58.5C 18.5,56.5 18.5,54.5 18.5,52.5 Z"/></g>
<g><path style="opacity:0.837" fill="#d77330" d="M 20.5,52.5 C 21.8333,52.8333 23.1667,53.1667 24.5,53.5C 24.5,55.1667 24.5,56.8333 24.5,58.5C 23.1667,58.5 21.8333,58.5 20.5,58.5C 20.5,56.5 20.5,54.5 20.5,52.5 Z"/></g>
<g><path style="opacity:0.621" fill="#d25a2c" d="M 38.5,52.5 C 39.1667,52.5 39.8333,52.5 40.5,52.5C 40.8417,53.3382 41.5084,53.6716 42.5,53.5C 42.5,53.8333 42.5,54.1667 42.5,54.5C 42.5,55.1667 42.5,55.8333 42.5,56.5C 41.1667,56.1667 39.8333,55.8333 38.5,55.5C 38.5,54.5 38.5,53.5 38.5,52.5 Z"/></g>
<g><path style="opacity:0.286" fill="#cf4c2b" d="M 52.5,52.5 C 52.5,53.1667 52.5,53.8333 52.5,54.5C 51.1667,54.8333 51.1667,55.1667 52.5,55.5C 52.5,56.1667 52.5,56.8333 52.5,57.5C 50.8828,58.038 49.2161,58.3713 47.5,58.5C 47.5,57.8333 47.5,57.1667 47.5,56.5C 49.9418,56.8808 50.6085,56.2141 49.5,54.5C 50.3569,53.5748 51.3569,52.9081 52.5,52.5 Z"/></g>
<g><path style="opacity:0.827" fill="#d66e30" d="M 24.5,53.5 C 25.9587,53.4326 27.2921,53.7659 28.5,54.5C 28.5,55.8333 28.5,57.1667 28.5,58.5C 27.1667,58.5 25.8333,58.5 24.5,58.5C 24.5,56.8333 24.5,55.1667 24.5,53.5 Z"/></g>
<g><path style="opacity:0.834" fill="#d5692f" d="M 28.5,54.5 C 29.5,54.5 30.5,54.5 31.5,54.5C 31.5,55.8333 31.5,57.1667 31.5,58.5C 30.5,58.5 29.5,58.5 28.5,58.5C 28.5,57.1667 28.5,55.8333 28.5,54.5 Z"/></g>
<g><path style="opacity:0.806" fill="#d3652e" d="M 31.5,54.5 C 35.1654,56.374 35.1654,57.7073 31.5,58.5C 31.5,57.1667 31.5,55.8333 31.5,54.5 Z"/></g>
<g><path style="opacity:0.521" fill="#d0542b" d="M 42.5,50.5 C 45.4959,51.4744 47.1625,53.4744 47.5,56.5C 47.5,57.1667 47.5,57.8333 47.5,58.5C 45.8333,57.8333 44.1667,57.1667 42.5,56.5C 42.5,55.8333 42.5,55.1667 42.5,54.5C 45.1667,54.1667 45.1667,53.8333 42.5,53.5C 42.5,53.1667 42.5,52.8333 42.5,52.5C 42.5,51.8333 42.5,51.1667 42.5,50.5 Z"/></g>
<g><path style="opacity:0.865" fill="#d77330" d="M 24.5,60.5 C 24.5,62.5 24.5,64.5 24.5,66.5C 23.1667,66.5 21.8333,66.5 20.5,66.5C 20.5,64.8333 20.5,63.1667 20.5,61.5C 21.9587,61.5674 23.2921,61.2341 24.5,60.5 Z"/></g>
<g><path style="opacity:0.725" fill="#d66e30" d="M 24.5,60.5 C 25.8333,60.5 27.1667,60.5 28.5,60.5C 28.5,62.1667 28.5,63.8333 28.5,65.5C 27.0413,65.4326 25.7079,65.7659 24.5,66.5C 24.5,64.5 24.5,62.5 24.5,60.5 Z"/></g>
<g><path style="opacity:0.673" fill="#d5692f" d="M 28.5,60.5 C 29.5,60.5 30.5,60.5 31.5,60.5C 31.5,61.8333 31.5,63.1667 31.5,64.5C 30.609,65.1098 29.609,65.4431 28.5,65.5C 28.5,63.8333 28.5,62.1667 28.5,60.5 Z"/></g>
<g><path style="opacity:0.65" fill="#d3652e" d="M 31.5,60.5 C 35.5,61.8333 35.5,63.1667 31.5,64.5C 31.5,63.1667 31.5,61.8333 31.5,60.5 Z"/></g>
<g><path style="opacity:0.81" fill="#e09838" d="M -0.5,61.5 C 0.5,61.5 1.5,61.5 2.5,61.5C 2.5,64.5 2.5,67.5 2.5,70.5C 1.60895,71.1098 0.608953,71.4431 -0.5,71.5C -0.5,68.1667 -0.5,64.8333 -0.5,61.5 Z"/></g>
<g><path style="opacity:0.846" fill="#e09236" d="M 2.5,61.5 C 3.83333,61.5 5.16667,61.5 6.5,61.5C 6.5,64.1667 6.5,66.8333 6.5,69.5C 5.43236,70.4345 4.09903,70.7678 2.5,70.5C 2.5,67.5 2.5,64.5 2.5,61.5 Z"/></g>
<g><path style="opacity:0.869" fill="#de8c35" d="M 6.5,61.5 C 7.5,61.5 8.5,61.5 9.5,61.5C 9.5,64.1667 9.5,66.8333 9.5,69.5C 8.5,69.5 7.5,69.5 6.5,69.5C 6.5,66.8333 6.5,64.1667 6.5,61.5 Z"/></g>
<g><path style="opacity:0.88" fill="#dd8734" d="M 9.5,61.5 C 10.5,61.5 11.5,61.5 12.5,61.5C 12.5,63.8333 12.5,66.1667 12.5,68.5C 11.391,68.5569 10.391,68.8902 9.5,69.5C 9.5,66.8333 9.5,64.1667 9.5,61.5 Z"/></g>
<g><path style="opacity:0.851" fill="#db8133" d="M 12.5,61.5 C 13.5,61.5 14.5,61.5 15.5,61.5C 15.5,63.5 15.5,65.5 15.5,67.5C 14.791,68.404 13.791,68.7373 12.5,68.5C 12.5,66.1667 12.5,63.8333 12.5,61.5 Z"/></g>
<g><path style="opacity:0.924" fill="#d97c32" d="M 15.5,61.5 C 16.5,61.5 17.5,61.5 18.5,61.5C 18.5,63.5 18.5,65.5 18.5,67.5C 17.5,67.5 16.5,67.5 15.5,67.5C 15.5,65.5 15.5,63.5 15.5,61.5 Z"/></g>
<g><path style="opacity:0.84" fill="#d87831" d="M 18.5,61.5 C 19.1667,61.5 19.8333,61.5 20.5,61.5C 20.5,63.1667 20.5,64.8333 20.5,66.5C 20.1583,67.3382 19.4916,67.6716 18.5,67.5C 18.5,65.5 18.5,63.5 18.5,61.5 Z"/></g>
<g><path style="opacity:0.723" fill="#c92b2a" d="M 203.5,64.5 C 209.248,65.164 210.581,67.9974 207.5,73C 202.33,73.8653 200.497,71.6987 202,66.5C 202.717,65.9558 203.217,65.2891 203.5,64.5 Z"/></g>
<g><path style="opacity:0.774" fill="#d5692f" d="M 31.5,66.5 C 31.5,67.8333 31.5,69.1667 31.5,70.5C 30.609,71.1098 29.609,71.4431 28.5,71.5C 28.5,70.1667 28.5,68.8333 28.5,67.5C 29.391,66.8902 30.391,66.5569 31.5,66.5 Z"/></g>
<g><path style="opacity:0.702" fill="#d3652e" d="M 31.5,66.5 C 32.675,66.281 33.675,66.6143 34.5,67.5C 34.1207,69.2131 33.1207,70.2131 31.5,70.5C 31.5,69.1667 31.5,67.8333 31.5,66.5 Z"/></g>
<g><path style="opacity:0.754" fill="#d66e30" d="M 28.5,67.5 C 28.5,68.8333 28.5,70.1667 28.5,71.5C 27.4863,72.6737 26.153,73.3404 24.5,73.5C 24.5,71.8333 24.5,70.1667 24.5,68.5C 25.7079,67.7659 27.0413,67.4326 28.5,67.5 Z"/></g>
<g><path style="opacity:0.773" fill="#d77330" d="M 24.5,68.5 C 24.5,70.1667 24.5,71.8333 24.5,73.5C 23.4863,74.6737 22.153,75.3404 20.5,75.5C 20.5,73.5 20.5,71.5 20.5,69.5C 21.8333,69.1667 23.1667,68.8333 24.5,68.5 Z"/></g>
<g><path style="opacity:0.791" fill="#d87831" d="M 20.5,69.5 C 20.5,71.5 20.5,73.5 20.5,75.5C 19.8333,75.8333 19.1667,76.1667 18.5,76.5C 18.5,74.5 18.5,72.5 18.5,70.5C 18.8417,69.6618 19.5084,69.3284 20.5,69.5 Z"/></g>
<g><path style="opacity:0.807" fill="#d97c32" d="M 18.5,70.5 C 18.5,72.5 18.5,74.5 18.5,76.5C 17.609,77.1098 16.609,77.4431 15.5,77.5C 15.5,75.5 15.5,73.5 15.5,71.5C 16.209,70.596 17.209,70.2627 18.5,70.5 Z"/></g>
<g><path style="opacity:0.822" fill="#dd8734" d="M 12.5,71.5 C 12.5,74.1667 12.5,76.8333 12.5,79.5C 11.609,80.1098 10.609,80.4431 9.5,80.5C 9.5,77.8333 9.5,75.1667 9.5,72.5C 10.609,72.4431 11.609,72.1098 12.5,71.5 Z"/></g>
<g><path style="opacity:0.828" fill="#db8133" d="M 12.5,71.5 C 13.5,71.5 14.5,71.5 15.5,71.5C 15.5,73.5 15.5,75.5 15.5,77.5C 14.7095,78.4013 13.7095,79.0679 12.5,79.5C 12.5,76.8333 12.5,74.1667 12.5,71.5 Z"/></g>
<g><path style="opacity:0.648" fill="#d3652e" d="M 32.5,76.5 C 32.1667,76.5 31.8333,76.5 31.5,76.5C 31.5,75.1667 31.5,73.8333 31.5,72.5C 32.209,71.596 33.209,71.2627 34.5,71.5C 34.6085,73.5138 33.9418,75.1805 32.5,76.5 Z"/></g>
<g><path style="opacity:0.886" fill="#de8c35" d="M 9.5,72.5 C 9.5,75.1667 9.5,77.8333 9.5,80.5C 8.60895,81.1098 7.60895,81.4431 6.5,81.5C 6.5,78.8333 6.5,76.1667 6.5,73.5C 7.60895,73.4431 8.60895,73.1098 9.5,72.5 Z"/></g>
<g><path style="opacity:0.668" fill="#d5692f" d="M 31.5,72.5 C 31.5,73.8333 31.5,75.1667 31.5,76.5C 31.5,76.8333 31.5,77.1667 31.5,77.5C 31.5,79.1667 31.5,80.8333 31.5,82.5C 30.8333,83.8333 29.8333,84.8333 28.5,85.5C 28.5,83.8333 28.5,82.1667 28.5,80.5C 28.5,80.1667 28.5,79.8333 28.5,79.5C 29.8333,79.1667 29.8333,78.8333 28.5,78.5C 28.5,76.8333 28.5,75.1667 28.5,73.5C 29.391,72.8902 30.391,72.5569 31.5,72.5 Z"/></g>
<g><path style="opacity:0.863" fill="#e09236" d="M 6.5,73.5 C 6.5,76.1667 6.5,78.8333 6.5,81.5C 5.48631,82.6737 4.15298,83.3404 2.5,83.5C 2.5,80.5 2.5,77.5 2.5,74.5C 3.83333,74.1667 5.16667,73.8333 6.5,73.5 Z"/></g>
<g><path style="opacity:0.726" fill="#d66e30" d="M 28.5,73.5 C 28.5,75.1667 28.5,76.8333 28.5,78.5C 28.5,78.8333 28.5,79.1667 28.5,79.5C 26.9382,79.7329 25.6049,80.3995 24.5,81.5C 24.5,79.8333 24.5,78.1667 24.5,76.5C 25.4363,75.0256 26.7697,74.0256 28.5,73.5 Z"/></g>
<g><path style="opacity:0.919" fill="#e09838" d="M 2.5,74.5 C 2.5,77.5 2.5,80.5 2.5,83.5C 1.79105,84.404 0.791047,84.7373 -0.5,84.5C -0.5,81.5 -0.5,78.5 -0.5,75.5C 0.608953,75.4431 1.60895,75.1098 2.5,74.5 Z"/></g>
<g><path style="opacity:0.782" fill="#d77330" d="M 24.5,76.5 C 24.5,78.1667 24.5,79.8333 24.5,81.5C 24.5,81.8333 24.5,82.1667 24.5,82.5C 22.9382,82.7329 21.6049,83.3995 20.5,84.5C 20.5,82.5 20.5,80.5 20.5,78.5C 21.5137,77.3263 22.847,76.6596 24.5,76.5 Z"/></g>
<g><path style="opacity:0.629" fill="#d3652e" d="M 32.5,76.5 C 34.8118,78.6523 34.4785,80.6523 31.5,82.5C 31.5,80.8333 31.5,79.1667 31.5,77.5C 32.1667,77.5 32.5,77.1667 32.5,76.5 Z"/></g>
<g><path style="opacity:0.885" fill="#676f74" d="M 56.5,76.5 C 71.837,76.3334 87.1703,76.5001 102.5,77C 107.915,77.1314 111.749,79.6314 114,84.5C 114.5,93.8274 114.666,103.161 114.5,112.5C 111.833,112.5 109.167,112.5 106.5,112.5C 106.943,103.392 106.443,94.3921 105,85.5C 104.25,84.8742 103.416,84.3742 102.5,84C 98.1794,83.501 93.8461,83.3343 89.5,83.5C 89.5,93.1667 89.5,102.833 89.5,112.5C 86.8333,112.5 84.1667,112.5 81.5,112.5C 81.5,102.833 81.5,93.1667 81.5,83.5C 75.8333,83.5 70.1667,83.5 64.5,83.5C 64.5,93.1667 64.5,102.833 64.5,112.5C 61.8333,112.5 59.1667,112.5 56.5,112.5C 56.5,100.5 56.5,88.5 56.5,76.5 Z"/></g>
<g><path style="opacity:0.807" fill="#676f74" d="M 193.5,76.5 C 196.5,76.5 199.5,76.5 202.5,76.5C 202.666,85.1731 202.5,93.8397 202,102.5C 200.098,107.4 196.598,110.567 191.5,112C 182.506,112.5 173.506,112.666 164.5,112.5C 164.5,110.167 164.5,107.833 164.5,105.5C 173.608,105.943 182.608,105.443 191.5,104C 192,103.5 192.5,103 193,102.5C 193.5,93.8397 193.666,85.1731 193.5,76.5 Z"/></g>
<g><path style="opacity:0.878" fill="#676f74" d="M 249.5,84.5 C 249.5,93.8333 249.5,103.167 249.5,112.5C 246.833,112.5 244.167,112.5 241.5,112.5C 241.666,104.16 241.5,95.8267 241,87.5C 239.786,85.9512 238.286,84.7845 236.5,84C 229.842,83.5004 223.175,83.3337 216.5,83.5C 216.5,93.1667 216.5,102.833 216.5,112.5C 213.833,112.5 211.167,112.5 208.5,112.5C 208.5,100.5 208.5,88.5 208.5,76.5C 217.506,76.3336 226.506,76.5002 235.5,77C 241.521,77.2313 246.187,79.7313 249.5,84.5 Z"/></g>
<g><path style="opacity:0.859" fill="#676f74" d="M 118.5,77.5 C 121.5,77.5 124.5,77.5 127.5,77.5C 127.334,85.84 127.5,94.1733 128,102.5C 128.903,103.701 130.069,104.535 131.5,105C 138.492,105.5 145.492,105.666 152.5,105.5C 152.5,96.1667 152.5,86.8333 152.5,77.5C 155.167,77.5 157.833,77.5 160.5,77.5C 160.5,89.1667 160.5,100.833 160.5,112.5C 150.161,112.666 139.828,112.5 129.5,112C 124,110.5 120.5,107 119,101.5C 118.5,93.5069 118.334,85.5069 118.5,77.5 Z"/></g>
<g><path style="opacity:0.774" fill="#d87831" d="M 20.5,78.5 C 20.5,80.5 20.5,82.5 20.5,84.5C 20.1583,85.3382 19.4916,85.6716 18.5,85.5C 18.5,83.5 18.5,81.5 18.5,79.5C 18.8417,78.6618 19.5084,78.3284 20.5,78.5 Z"/></g>
<g><path style="opacity:0.794" fill="#d97c32" d="M 18.5,79.5 C 18.5,81.5 18.5,83.5 18.5,85.5C 18.0269,86.9063 17.0269,87.573 15.5,87.5C 15.5,85.1667 15.5,82.8333 15.5,80.5C 16.391,79.8902 17.391,79.5569 18.5,79.5 Z"/></g>
<g><path style="opacity:0.8" fill="#db8133" d="M 15.5,80.5 C 15.5,82.8333 15.5,85.1667 15.5,87.5C 14.8333,88.8333 13.8333,89.8333 12.5,90.5C 12.5,87.8333 12.5,85.1667 12.5,82.5C 13.5,81.8333 14.5,81.1667 15.5,80.5 Z"/></g>
<g><path style="opacity:0.717" fill="#d66e30" d="M 28.5,80.5 C 28.5,82.1667 28.5,83.8333 28.5,85.5C 27.5,87.1667 26.1667,88.5 24.5,89.5C 24.5,87.5 24.5,85.5 24.5,83.5C 24.5,83.1667 24.5,82.8333 24.5,82.5C 26.0618,82.2671 27.3951,81.6005 28.5,80.5 Z"/></g>
<g><path style="opacity:0.832" fill="#dd8734" d="M 12.5,82.5 C 12.5,85.1667 12.5,87.8333 12.5,90.5C 11.5,91.1667 10.5,91.8333 9.5,92.5C 9.5,89.8333 9.5,87.1667 9.5,84.5C 10.2905,83.5987 11.2905,82.9321 12.5,82.5 Z"/></g>
<g><path style="opacity:0.753" fill="#d77330" d="M 24.5,83.5 C 24.5,85.5 24.5,87.5 24.5,89.5C 23.5,91.1667 22.1667,92.5 20.5,93.5C 20.5,91.5 20.5,89.5 20.5,87.5C 21.5,85.8333 22.8333,84.5 24.5,83.5 Z"/></g>
<g><path style="opacity:0.83" fill="#de8c35" d="M 9.5,84.5 C 9.5,87.1667 9.5,89.8333 9.5,92.5C 8.70951,93.4013 7.70951,94.0679 6.5,94.5C 6.5,91.5 6.5,88.5 6.5,85.5C 7.39105,84.8902 8.39105,84.5569 9.5,84.5 Z"/></g>
<g><path style="opacity:0.846" fill="#e09236" d="M 6.5,85.5 C 6.5,88.5 6.5,91.5 6.5,94.5C 5.20498,95.4884 3.87165,96.4884 2.5,97.5C 2.5,94.5 2.5,91.5 2.5,88.5C 3.43634,87.0256 4.76967,86.0256 6.5,85.5 Z"/></g>
<g><path style="opacity:0.781" fill="#d87831" d="M 20.5,87.5 C 20.5,89.5 20.5,91.5 20.5,93.5C 20.1667,94.5 19.5,95.1667 18.5,95.5C 18.5,93.1667 18.5,90.8333 18.5,88.5C 18.8417,87.6618 19.5084,87.3284 20.5,87.5 Z"/></g>
<g><path style="opacity:0.858" fill="#e09938" d="M 2.5,88.5 C 2.5,91.5 2.5,94.5 2.5,97.5C 1.70951,98.4013 0.709515,99.0679 -0.5,99.5C -0.5,96.1667 -0.5,92.8333 -0.5,89.5C 0.391047,88.8902 1.39105,88.5569 2.5,88.5 Z"/></g>
<g><path style="opacity:0.806" fill="#d97c32" d="M 18.5,88.5 C 18.5,90.8333 18.5,93.1667 18.5,95.5C 17.8333,96.8333 16.8333,97.8333 15.5,98.5C 15.5,96.1667 15.5,93.8333 15.5,91.5C 16.1667,90.1667 17.1667,89.1667 18.5,88.5 Z"/></g>
<g><path style="opacity:0.832" fill="#db8133" d="M 15.5,91.5 C 15.5,93.8333 15.5,96.1667 15.5,98.5C 14.8333,99.8333 13.8333,100.833 12.5,101.5C 12.5,98.8333 12.5,96.1667 12.5,93.5C 13.2905,92.5987 14.2905,91.9321 15.5,91.5 Z"/></g>
<g><path style="opacity:0.836" fill="#dd8734" d="M 12.5,93.5 C 12.5,96.1667 12.5,98.8333 12.5,101.5C 11.8333,102.833 10.8333,103.833 9.5,104.5C 9.5,101.833 9.5,99.1667 9.5,96.5C 10.1667,95.1667 11.1667,94.1667 12.5,93.5 Z"/></g>
<g><path style="opacity:0.811" fill="#de8c35" d="M 9.5,96.5 C 9.5,99.1667 9.5,101.833 9.5,104.5C 8.97439,106.23 7.97439,107.564 6.5,108.5C 6.5,105.167 6.5,101.833 6.5,98.5C 7.29049,97.5987 8.29049,96.9321 9.5,96.5 Z"/></g>
<g><path style="opacity:0.809" fill="#e09236" d="M 6.5,98.5 C 6.5,101.833 6.5,105.167 6.5,108.5C 5.5,110.167 4.16667,111.5 2.5,112.5C 2.5,109.167 2.5,105.833 2.5,102.5C 3.5,100.833 4.83333,99.5 6.5,98.5 Z"/></g>
<g><path style="opacity:0.861" fill="#e09938" d="M 2.5,102.5 C 2.5,105.833 2.5,109.167 2.5,112.5C 2.16667,113.167 1.83333,113.833 1.5,114.5C 0.833333,114.5 0.166667,114.5 -0.5,114.5C -0.5,110.833 -0.5,107.167 -0.5,103.5C 0.391047,102.89 1.39105,102.557 2.5,102.5 Z"/></g>
</svg>
