<?xml version="1.0" encoding="UTF-8"?>
<!DOCTYPE svg PUBLIC "-//W3C//DTD SVG 1.1//EN" "http://www.w3.org/Graphics/SVG/1.1/DTD/svg11.dtd">
<svg xmlns="http://www.w3.org/2000/svg" version="1.1" width="474px" height="474px" style="shape-rendering:geometricPrecision; text-rendering:geometricPrecision; image-rendering:optimizeQuality; fill-rule:evenodd; clip-rule:evenodd" xmlns:xlink="http://www.w3.org/1999/xlink">
<g><path style="opacity:1" fill="#000000" d="M -0.5,-0.5 C 157.5,-0.5 315.5,-0.5 473.5,-0.5C 473.5,157.5 473.5,315.5 473.5,473.5C 315.5,473.5 157.5,473.5 -0.5,473.5C -0.5,315.5 -0.5,157.5 -0.5,-0.5 Z"/></g>
<g><path style="opacity:1" fill="#f0f0f0" d="M 278.5,230.5 C 273.265,232.45 267.598,233.117 261.5,232.5C 261.5,231.5 261.5,230.5 261.5,229.5C 262.5,229.5 263.5,229.5 264.5,229.5C 264.249,225.751 263.583,222.085 262.5,218.5C 258.116,218.174 253.783,218.508 249.5,219.5C 247.973,222.66 247.307,225.993 247.5,229.5C 248.833,229.5 250.167,229.5 251.5,229.5C 251.5,230.5 251.5,231.5 251.5,232.5C 246.5,232.5 241.5,232.5 236.5,232.5C 236.5,231.5 236.5,230.5 236.5,229.5C 238.484,229.617 240.15,228.95 241.5,227.5C 246.277,216.279 250.777,204.946 255,193.5C 256.211,189.538 258.211,188.871 261,191.5C 265.136,203.576 269.47,215.576 274,227.5C 275.129,229.141 276.629,230.141 278.5,230.5 Z"/></g>
<g><path style="opacity:1" fill="#eeeeee" d="M 363.5,189.5 C 369.232,189.283 374.899,189.783 380.5,191C 382.29,194.583 382.957,198.416 382.5,202.5C 381.5,202.5 380.5,202.5 379.5,202.5C 378.863,198.732 376.863,195.899 373.5,194C 363.514,191.648 357.347,195.481 355,205.5C 353.443,214.661 354.777,223.328 359,231.5C 367.076,239.957 374.243,239.291 380.5,229.5C 381.325,228.614 382.325,228.281 383.5,228.5C 383.252,232.744 381.919,236.578 379.5,240C 363.791,243.395 352.624,237.895 346,223.5C 341.583,206.663 347.416,195.33 363.5,189.5 Z"/></g>
<g><path style="opacity:1" fill="#efefef" d="M 99.5,195.5 C 98.1834,201.346 98.1834,207.346 99.5,213.5C 100.107,213.376 100.44,213.043 100.5,212.5C 106.072,206.943 110.405,200.61 113.5,193.5C 112.167,193.5 110.833,193.5 109.5,193.5C 109.5,192.5 109.5,191.5 109.5,190.5C 115.167,190.5 120.833,190.5 126.5,190.5C 126.5,191.5 126.5,192.5 126.5,193.5C 123.575,193.46 120.909,194.293 118.5,196C 114.379,201.076 110.379,206.243 106.5,211.5C 111.59,219.425 117.257,226.925 123.5,234C 124.793,234.49 126.127,234.657 127.5,234.5C 127.5,235.5 127.5,236.5 127.5,237.5C 123.089,237.936 118.756,237.936 114.5,237.5C 109.733,230.286 104.733,223.286 99.5,216.5C 98.3364,222.472 98.1697,228.472 99,234.5C 99.9282,237.035 101.762,238.035 104.5,237.5C 104.5,238.5 104.5,239.5 104.5,240.5C 98.1487,240.557 91.8154,240.89 85.5,241.5C 85.5,240.5 85.5,239.5 85.5,238.5C 87.1439,238.714 88.6439,238.38 90,237.5C 90.6667,223.167 90.6667,208.833 90,194.5C 88.6439,193.62 87.1439,193.286 85.5,193.5C 85.5,192.5 85.5,191.5 85.5,190.5C 91.8333,190.5 98.1667,190.5 104.5,190.5C 104.5,191.5 104.5,192.5 104.5,193.5C 102.302,193.12 100.635,193.787 99.5,195.5 Z"/></g>
<g><path style="opacity:1" fill="#ededed" d="M 136.5,190.5 C 142.167,190.5 147.833,190.5 153.5,190.5C 153.5,191.5 153.5,192.5 153.5,193.5C 152.5,193.5 151.5,193.5 150.5,193.5C 152.432,199.369 154.932,205.036 158,210.5C 160.484,205.531 162.984,200.531 165.5,195.5C 164.332,193.783 162.665,193.116 160.5,193.5C 160.5,192.5 160.5,191.5 160.5,190.5C 165.833,190.5 171.167,190.5 176.5,190.5C 176.5,191.5 176.5,192.5 176.5,193.5C 173.215,193.269 170.715,194.603 169,197.5C 166.603,202.627 163.936,207.627 161,212.5C 160.5,218.825 160.334,225.158 160.5,231.5C 162.5,231.5 164.5,231.5 166.5,231.5C 166.5,232.5 166.5,233.5 166.5,234.5C 159.465,235.112 152.465,235.112 145.5,234.5C 146.991,232.988 148.824,231.988 151,231.5C 151.667,225.833 151.667,220.167 151,214.5C 148.667,209.5 146.333,204.5 144,199.5C 142.636,196.637 140.47,194.637 137.5,193.5C 136.614,192.675 136.281,191.675 136.5,190.5 Z"/></g>
<g><path style="opacity:1" fill="#f1f1f1" d="M 187.5,190.5 C 196.839,190.334 206.173,190.5 215.5,191C 229.211,195.927 233.711,205.427 229,219.5C 224.404,227.892 217.237,232.392 207.5,233C 200.842,233.5 194.175,233.666 187.5,233.5C 187.5,232.5 187.5,231.5 187.5,230.5C 190.238,231.035 192.072,230.035 193,227.5C 193.832,216.485 193.666,205.485 192.5,194.5C 190.929,193.691 189.262,193.357 187.5,193.5C 187.5,192.5 187.5,191.5 187.5,190.5 Z"/></g>
<g><path style="opacity:1" fill="#f3f3f3" d="M 322.5,219.5 C 322.783,220.289 323.283,220.956 324,221.5C 324.824,212.657 324.657,203.99 323.5,195.5C 321.898,193.926 319.898,193.259 317.5,193.5C 317.5,192.5 317.5,191.5 317.5,190.5C 322.833,190.5 328.167,190.5 333.5,190.5C 333.5,191.5 333.5,192.5 333.5,193.5C 329.828,193.183 328.162,194.849 328.5,198.5C 327.505,210.655 327.171,222.989 327.5,235.5C 326.5,235.5 325.5,235.5 324.5,235.5C 316.115,225.116 308.115,214.45 300.5,203.5C 300.44,202.957 300.107,202.624 299.5,202.5C 298.181,209.99 298.181,217.323 299.5,224.5C 298.677,229.339 300.677,231.673 305.5,231.5C 305.5,232.5 305.5,233.5 305.5,234.5C 300.167,234.5 294.833,234.5 289.5,234.5C 289.5,233.167 289.5,231.833 289.5,230.5C 292.48,230.759 294.313,229.426 295,226.5C 295.667,216.833 295.667,207.167 295,197.5C 293.974,194.307 291.808,192.974 288.5,193.5C 288.5,192.5 288.5,191.5 288.5,190.5C 292.514,190.334 296.514,190.501 300.5,191C 307.721,200.62 315.054,210.12 322.5,219.5 Z"/></g>
<g><path style="opacity:1" fill="#eeeeee" d="M 395.5,190.5 C 406.52,190.168 417.52,190.501 428.5,191.5C 429.407,194.421 429.74,197.421 429.5,200.5C 428.448,200.649 427.448,200.483 426.5,200C 425.5,198.333 424.5,196.667 423.5,195C 418.845,194.501 414.179,194.334 409.5,194.5C 409.5,201.5 409.5,208.5 409.5,215.5C 413.514,215.666 417.514,215.499 421.5,215C 422.337,213.989 422.67,212.822 422.5,211.5C 423.5,211.5 424.5,211.5 425.5,211.5C 425.5,215.833 425.5,220.167 425.5,224.5C 424.5,224.5 423.5,224.5 422.5,224.5C 422.863,222.089 421.863,220.589 419.5,220C 416.183,219.502 412.85,219.335 409.5,219.5C 409.334,226.508 409.5,233.508 410,240.5C 414.432,243.219 419.265,244.052 424.5,243C 426.213,241.622 427.547,239.955 428.5,238C 429.448,237.517 430.448,237.351 431.5,237.5C 431.002,240.487 430.502,243.487 430,246.5C 429.326,247.578 428.326,248.245 427,248.5C 416.588,246.303 406.088,244.636 395.5,243.5C 395.5,242.5 395.5,241.5 395.5,240.5C 397.467,240.739 399.301,240.406 401,239.5C 401.833,224.489 401.666,209.489 400.5,194.5C 398.929,193.691 397.262,193.357 395.5,193.5C 395.5,192.5 395.5,191.5 395.5,190.5 Z"/></g>
<g><path style="opacity:1" fill="#050505" d="M 202.5,193.5 C 217.23,194.078 223.397,201.744 221,216.5C 218.287,227.012 211.954,230.678 202,227.5C 201.19,216.091 201.357,204.757 202.5,193.5 Z"/></g>
<g><path style="opacity:1" fill="#efefef" d="M 53.5,189.5 C 58.248,189.275 62.9147,189.775 67.5,191C 68.9707,194.321 69.6374,197.821 69.5,201.5C 68.325,201.719 67.325,201.386 66.5,200.5C 62.8063,192.024 57.6396,190.691 51,196.5C 48.8386,200.698 49.1719,204.698 52,208.5C 56.2372,212.036 60.7372,215.202 65.5,218C 73.0053,223.831 74.5053,230.997 70,239.5C 62.3491,247.496 53.3491,249.496 43,245.5C 41.7633,241.94 41.2633,238.273 41.5,234.5C 44.5356,235.812 46.7022,238.146 48,241.5C 60.6736,245.827 65.3402,241.494 62,228.5C 58.3581,223.854 53.8581,220.354 48.5,218C 40.8106,211.507 39.644,204.007 45,195.5C 47.6713,193.098 50.5046,191.098 53.5,189.5 Z"/></g>
<g><path style="opacity:1" fill="#767676" d="M 99.5,195.5 C 99.1778,201.358 99.5111,207.025 100.5,212.5C 100.44,213.043 100.107,213.376 99.5,213.5C 98.1834,207.346 98.1834,201.346 99.5,195.5 Z"/></g>
<g><path style="opacity:1" fill="#191919" d="M 255.5,202.5 C 257.328,205.935 258.994,209.601 260.5,213.5C 257.572,214.484 254.572,214.817 251.5,214.5C 252.238,210.285 253.572,206.285 255.5,202.5 Z"/></g>
<g><path style="opacity:1" fill="#989898" d="M 328.5,198.5 C 328.5,211.167 328.5,223.833 328.5,236.5C 326.901,236.768 325.568,236.434 324.5,235.5C 325.5,235.5 326.5,235.5 327.5,235.5C 327.171,222.989 327.505,210.655 328.5,198.5 Z"/></g>
<g><path style="opacity:1" fill="#3a3a3a" d="M 323.5,195.5 C 324.657,203.99 324.824,212.657 324,221.5C 323.283,220.956 322.783,220.289 322.5,219.5C 323.492,211.684 323.826,203.684 323.5,195.5 Z"/></g>
<g><path style="opacity:1" fill="#595959" d="M 300.5,203.5 C 299.509,210.313 299.175,217.313 299.5,224.5C 298.181,217.323 298.181,209.99 299.5,202.5C 300.107,202.624 300.44,202.957 300.5,203.5 Z"/></g>
<g><path style="opacity:1" fill="#808080" d="M 278.5,230.5 C 279.404,231.209 279.737,232.209 279.5,233.5C 273.31,233.823 267.31,233.49 261.5,232.5C 267.598,233.117 273.265,232.45 278.5,230.5 Z"/></g>
<g><path style="opacity:1" fill="#d7d7d7" d="M 303.5,242.5 C 299.366,243.485 295.032,243.818 290.5,243.5C 237.455,242.755 184.455,243.755 131.5,246.5C 129.901,246.768 128.568,246.434 127.5,245.5C 186.075,240.077 244.742,239.077 303.5,242.5 Z"/></g>
<g><path style="opacity:1" fill="#c2c2c2" d="M 303.5,242.5 C 326.209,244.08 348.876,246.08 371.5,248.5C 371.158,249.338 370.492,249.672 369.5,249.5C 343.042,247.203 316.709,245.203 290.5,243.5C 295.032,243.818 299.366,243.485 303.5,242.5 Z"/></g>
<g><path style="opacity:1" fill="#a6a6a6" d="M 127.5,245.5 C 128.568,246.434 129.901,246.768 131.5,246.5C 125.021,247.598 118.354,248.265 111.5,248.5C 110.209,248.737 109.209,248.404 108.5,247.5C 114.843,246.915 121.176,246.249 127.5,245.5 Z"/></g>
<g><path style="opacity:1" fill="#585858" d="M 371.5,248.5 C 379.475,249.687 387.475,250.687 395.5,251.5C 395.5,252.167 395.167,252.5 394.5,252.5C 385.973,251.95 377.64,250.95 369.5,249.5C 370.492,249.672 371.158,249.338 371.5,248.5 Z"/></g>
<g><path style="opacity:1" fill="#5f5f5f" d="M 108.5,247.5 C 109.209,248.404 110.209,248.737 111.5,248.5C 100.019,250.225 88.3524,251.559 76.5,252.5C 76.5,252.167 76.5,251.833 76.5,251.5C 87.1925,250.33 97.8592,248.997 108.5,247.5 Z"/></g>
<g><path style="opacity:1" fill="#2c2c2c" d="M 76.5,251.5 C 76.5,251.833 76.5,252.167 76.5,252.5C 69.3242,254.031 61.9908,255.364 54.5,256.5C 54.1667,256.167 53.8333,255.833 53.5,255.5C 61.1265,253.84 68.7931,252.507 76.5,251.5 Z"/></g>
<g><path style="opacity:1" fill="#2e2e2e" d="M 395.5,251.5 C 403.641,252.589 411.641,254.089 419.5,256C 411.006,255.334 402.673,254.167 394.5,252.5C 395.167,252.5 395.5,252.167 395.5,251.5 Z"/></g>
<g><path style="opacity:1" fill="#7d7d7d" d="M 288.5,260.5 C 282.729,259.887 277.396,260.554 272.5,262.5C 271.596,261.791 271.263,260.791 271.5,259.5C 277.358,259.178 283.025,259.511 288.5,260.5 Z"/></g>
<g><path style="opacity:1" fill="#fefefe" d="M 154.5,260.5 C 154.5,267.833 154.5,275.167 154.5,282.5C 153.178,279.232 152.511,275.565 152.5,271.5C 152.511,267.435 153.178,263.768 154.5,260.5 Z"/></g>
<g><path style="opacity:1" fill="#f8f8f8" d="M 288.5,260.5 C 286.721,262.344 284.388,263.01 281.5,262.5C 281.5,269.167 281.5,275.833 281.5,282.5C 279.85,276.062 278.85,269.395 278.5,262.5C 276.5,262.5 274.5,262.5 272.5,262.5C 277.396,260.554 282.729,259.887 288.5,260.5 Z"/></g>
<g><path style="opacity:1" fill="#ececec" d="M 314.5,259.5 C 315.5,259.5 316.5,259.5 317.5,259.5C 317.5,267.5 317.5,275.5 317.5,283.5C 316.5,283.5 315.5,283.5 314.5,283.5C 314.5,275.5 314.5,267.5 314.5,259.5 Z"/></g>
<g><path style="opacity:1" fill="#676767" d="M 124.5,260.5 C 122.866,265.437 121.866,270.771 121.5,276.5C 120.893,276.376 120.56,276.043 120.5,275.5C 121.488,270.36 121.821,265.026 121.5,259.5C 122.791,259.263 123.791,259.596 124.5,260.5 Z"/></g>
<g><path style="opacity:1" fill="#a5a5a5" d="M 154.5,260.5 C 153.178,263.768 152.511,267.435 152.5,271.5C 152.511,275.565 153.178,279.232 154.5,282.5C 153.791,283.404 152.791,283.737 151.5,283.5C 151.5,275.5 151.5,267.5 151.5,259.5C 152.791,259.263 153.791,259.596 154.5,260.5 Z"/></g>
<g><path style="opacity:1" fill="#a7a7a7" d="M 278.5,262.5 C 278.85,269.395 279.85,276.062 281.5,282.5C 280.791,283.404 279.791,283.737 278.5,283.5C 278.5,276.5 278.5,269.5 278.5,262.5 Z"/></g>
<g><path style="opacity:1" fill="#515151" d="M 124.5,260.5 C 125.82,268.01 125.82,275.677 124.5,283.5C 123.893,283.376 123.56,283.043 123.5,282.5C 124.492,275.352 124.825,268.019 124.5,260.5 Z"/></g>
<g><path style="opacity:1" fill="#d9d9d9" d="M 392.5,283.5 C 392.175,275.648 392.508,267.982 393.5,260.5C 398.23,265.617 402.73,270.95 407,276.5C 407.499,270.843 407.666,265.176 407.5,259.5C 408.5,259.5 409.5,259.5 410.5,259.5C 410.831,267.528 410.498,275.528 409.5,283.5C 405.188,278.02 400.688,272.687 396,267.5C 395.501,272.823 395.334,278.156 395.5,283.5C 394.5,283.5 393.5,283.5 392.5,283.5 Z"/></g>
<g><path style="opacity:1" fill="#e2e2e2" d="M 120.5,275.5 C 120.56,276.043 120.893,276.376 121.5,276.5C 121.866,270.771 122.866,265.437 124.5,260.5C 124.825,268.019 124.492,275.352 123.5,282.5C 119.017,277.573 114.517,272.573 110,267.5C 109.501,272.823 109.334,278.156 109.5,283.5C 108.5,283.5 107.5,283.5 106.5,283.5C 106.334,275.493 106.5,267.493 107,259.5C 111.711,264.706 116.211,270.039 120.5,275.5 Z"/></g>
<g><path style="opacity:1" fill="#e0e0e0" d="M 351.5,259.5 C 360.354,258.529 365.687,262.363 367.5,271C 365.945,280.895 360.278,284.895 350.5,283C 343.134,277.973 341.634,271.473 346,263.5C 347.812,262.023 349.645,260.69 351.5,259.5 Z"/></g>
<g><path style="opacity:1" fill="#060606" d="M 351.5,262.5 C 361.179,261.678 365.012,266.011 363,275.5C 360.565,280.224 356.731,281.724 351.5,280C 344.863,274.263 344.863,268.43 351.5,262.5 Z"/></g>
<g><path style="opacity:1" fill="#e7e7e7" d="M 204.5,260.5 C 205.492,267.648 205.825,274.981 205.5,282.5C 203.715,277.933 202.882,272.933 203,267.5C 202.283,268.044 201.783,268.711 201.5,269.5C 199.192,272.815 196.859,276.149 194.5,279.5C 191.194,276.233 188.361,272.567 186,268.5C 185.501,273.489 185.334,278.489 185.5,283.5C 184.5,283.5 183.5,283.5 182.5,283.5C 182.334,275.493 182.5,267.493 183,259.5C 186.667,264.833 190.333,270.167 194,275.5C 197.72,270.62 201.22,265.62 204.5,260.5 Z"/></g>
<g><path style="opacity:1" fill="#474747" d="M 393.5,260.5 C 392.508,267.982 392.175,275.648 392.5,283.5C 391.18,275.657 391.18,267.657 392.5,259.5C 393.107,259.624 393.44,259.957 393.5,260.5 Z"/></g>
<g><path style="opacity:1" fill="#434343" d="M 204.5,260.5 C 204.56,259.957 204.893,259.624 205.5,259.5C 206.82,267.657 206.82,275.657 205.5,283.5C 205.5,283.167 205.5,282.833 205.5,282.5C 205.825,274.981 205.492,267.648 204.5,260.5 Z"/></g>
<g><path style="opacity:1" fill="#e5e5e5" d="M 240.5,259.5 C 244.057,266.96 247.391,274.627 250.5,282.5C 249.349,283.731 248.183,283.731 247,282.5C 245.764,276.78 242.264,274.947 236.5,277C 235.308,278.912 234.308,280.912 233.5,283C 232.365,283.749 231.365,283.583 230.5,282.5C 234.123,274.924 237.457,267.258 240.5,259.5 Z"/></g>
<g><path style="opacity:1" fill="#222222" d="M 239.5,266.5 C 242.135,268.339 243.468,271.006 243.5,274.5C 241.396,274.799 239.396,274.466 237.5,273.5C 238.946,271.382 239.613,269.049 239.5,266.5 Z"/></g>
<g><path style="opacity:1" fill="#e7e7e7" d="M 72.5,259.5 C 76.4025,267.192 79.7358,275.192 82.5,283.5C 79.1653,282.539 77.4986,280.206 77.5,276.5C 74.4816,276.335 71.4816,276.502 68.5,277C 67.792,279.589 66.4587,281.755 64.5,283.5C 64.1667,283 63.8333,282.5 63.5,282C 66.3772,274.418 69.3772,266.918 72.5,259.5 Z"/></g>
<g><path style="opacity:1" fill="#212121" d="M 72.5,266.5 C 74.2671,268.792 75.2671,271.458 75.5,274.5C 73.396,274.799 71.396,274.466 69.5,273.5C 70.7019,271.22 71.7019,268.886 72.5,266.5 Z"/></g>
<g><path style="opacity:1" fill="#999999" d="M 205.5,282.5 C 205.5,282.833 205.5,283.167 205.5,283.5C 204.5,283.5 203.5,283.5 202.5,283.5C 202.819,278.637 202.486,273.97 201.5,269.5C 201.783,268.711 202.283,268.044 203,267.5C 202.882,272.933 203.715,277.933 205.5,282.5 Z"/></g>
</svg>
